<?xml version="1.0" encoding="UTF-8"?>
<svg width="512" height="512" viewBox="0 0 512 512" fill="none" xmlns="http://www.w3.org/2000/svg">
  <path d="M256 40C180 40 120 100 120 176C120 252 180 312 256 312C332 312 392 252 392 176C392 100 332 40 256 40Z" fill="#FFB74D"/>
  <path d="M256 312C180 312 120 372 120 448H392C392 372 332 312 256 312Z" fill="#FF9800"/>
  <path d="M256 40C220 40 188 56 164 80C188 104 220 120 256 120C292 120 324 104 348 80C324 56 292 40 256 40Z" fill="#4CAF50"/>
  <path d="M348 80C324 104 292 120 256 120C220 120 188 104 164 80C140 104 124 136 124 172C124 244 184 304 256 304C328 304 388 244 388 172C388 136 372 104 348 80Z" fill="#FFA726"/>
</svg> 